<svg width="549" height="94" viewBox="0 0 549 94" fill="none" xmlns="http://www.w3.org/2000/svg">
<path d="M1.16113 0.768616C1.16113 51.6891 33.106 92.8933 72.5836 92.8933Z" fill="#ffffff"/>
<path d="M27.0381 5.3847C27.0381 53.7538 47.4087 92.8934 72.5829 92.8934Z" fill="#057DCD"/>
<path d="M199.796 64.6484C198.028 63.8232 195.316 64.0589 192.84 66.7705C180.462 79.9747 152.403 76.5558 150.398 45.3137C149.337 29.6337 159.005 17.2547 171.266 17.2547C188.596 17.2547 190.247 40.7158 198.264 40.7158C198.499 40.7158 198.264 40.7158 198.499 40.7158C200.975 40.7158 202.508 38.7116 202.036 34.7032C201.565 30.9305 200.386 17.2547 199.443 12.8926C198.735 9.12001 195.08 7.46948 191.072 9.00211C183.173 11.9495 179.047 8.29474 168.2 8.29474C144.622 8.29474 124.933 23.8568 123.754 49.2042C122.339 78.9137 144.622 93.1789 168.2 93.1789C184.47 93.1789 197.203 84.4547 201.918 70.3074C202.979 67.2421 201.447 65.3558 199.796 64.6484ZM265.793 70.8968V56.2779C265.793 39.419 249.406 34.2316 238.324 34.2316C230.543 34.2316 220.758 36 216.395 42.0126C212.269 47.7895 214.391 55.2168 219.697 56.16C235.259 59.1074 229.718 40.2442 237.97 41.3053C241.035 41.7768 241.743 44.7242 241.743 53.4484V58.2821C239.031 58.2821 235.73 58.2821 232.193 58.2821C219.579 58.2821 208.261 62.88 208.85 77.7347C209.204 88.9347 219.697 93.1789 229.6 93.1789C237.734 93.1789 242.568 89.1705 245.044 84.4547C245.162 85.1621 245.28 85.8695 245.515 86.5768C247.048 92.4716 253.061 94.24 260.134 92.7074C268.623 90.8211 271.688 86.5768 271.688 82.2147C271.688 82.0968 271.688 82.2147 271.688 81.9789C271.688 77.9705 265.793 76.5558 265.793 70.8968ZM236.673 81.9789C233.844 81.9789 231.25 80.4463 231.25 75.0232C231.25 68.6568 233.962 64.7663 239.385 64.7663C240.21 64.7663 241.035 64.7663 241.743 64.7663V71.4863C241.743 79.1495 239.857 81.9789 236.673 81.9789ZM331.177 42.2484C328.937 37.4147 325.047 34.2316 319.505 34.2316C312.196 34.2316 306.537 38.24 302.764 44.2526C302.764 42.72 302.764 41.0695 302.764 39.8905C302.764 33.1705 297.813 33.2884 290.032 36.1179C280.954 39.5368 276.356 42.6021 276.356 46.9642C276.356 47.0821 276.356 46.9642 276.356 47.2C276.356 51.2084 280.247 52.6232 280.247 58.2821V75.3768C280.247 81.1537 276.356 82.5684 276.356 86.5768C276.356 86.8126 276.356 86.6947 276.356 86.8126C276.356 91.1747 283.665 92.3537 292.272 92.3537C300.878 92.3537 308.305 91.1747 308.305 86.8126C308.305 86.6947 308.305 86.8126 308.305 86.5768C308.305 82.5684 304.297 81.1537 304.297 75.3768V56.2779C304.533 50.9726 305.358 49.5579 307.009 49.0863C308.777 48.379 310.663 49.3221 311.253 51.7979C313.964 61.5832 322.807 60.64 326.933 57.9284C332.71 54.3916 333.181 46.4926 331.177 42.2484ZM399.452 70.8968C399.452 70.8968 399.452 9.00211 399.452 8.41264C399.452 1.57475 392.85 1.81053 385.187 4.64C376.109 8.05896 371.511 11.1242 371.511 15.4863C371.511 15.6042 371.511 15.4863 371.511 15.7221C371.511 19.7305 375.401 21.1453 375.401 26.8042V37.8863C372.336 35.6463 368.328 34.2316 363.14 34.2316C346.989 34.2316 334.728 45.6674 334.728 63.7053C334.728 81.8611 346.164 93.1789 362.433 93.1789C369.507 93.1789 374.812 89.8779 378.702 85.1621C378.82 85.5158 378.938 85.9874 379.174 86.5768C380.589 92 386.719 94.24 393.675 92.7074C402.163 90.9389 405.347 86.6947 405.347 82.3326C405.347 82.0968 405.347 82.3326 405.347 82.0968C405.347 78.0884 399.452 76.6737 399.452 70.8968ZM367.856 82.9221C362.787 82.9221 359.486 76.4379 359.486 63.7053C359.486 51.0905 362.787 44.6063 367.856 44.6063C373.515 44.6063 375.991 53.2126 375.991 63.7053C375.991 74.3158 373.515 82.9221 367.856 82.9221ZM474.776 70.8968C474.776 70.8968 474.776 9.00211 474.776 8.41264C474.776 1.57475 468.173 1.81053 460.51 4.64C451.432 8.05896 446.835 11.1242 446.835 15.4863C446.835 15.6042 446.835 15.4863 446.835 15.7221C446.835 19.7305 450.725 21.1453 450.725 26.8042V37.8863C447.66 35.6463 443.651 34.2316 438.464 34.2316C422.312 34.2316 410.051 45.6674 410.051 63.7053C410.051 81.8611 421.487 93.1789 437.757 93.1789C444.83 93.1789 450.136 89.8779 454.026 85.1621C454.144 85.5158 454.262 85.9874 454.498 86.5768C455.912 92 462.043 94.24 468.999 92.7074C477.487 90.9389 480.67 86.6947 480.67 82.3326C480.67 82.0968 480.67 82.3326 480.67 82.0968C480.67 78.0884 474.776 76.6737 474.776 70.8968ZM443.18 82.9221C438.11 82.9221 434.809 76.4379 434.809 63.7053C434.809 51.0905 438.11 44.6063 443.18 44.6063C448.839 44.6063 451.315 53.2126 451.315 63.7053C451.315 74.3158 448.839 82.9221 443.18 82.9221ZM543.026 70.8968V56.2779C543.026 39.419 526.638 34.2316 515.556 34.2316C507.775 34.2316 497.99 36 493.628 42.0126C489.501 47.7895 491.623 55.2168 496.929 56.16C512.491 59.1074 506.95 40.2442 515.202 41.3053C518.268 41.7768 518.975 44.7242 518.975 53.4484V58.2821C516.263 58.2821 512.962 58.2821 509.426 58.2821C496.811 58.2821 485.493 62.88 486.082 77.7347C486.436 88.9347 496.929 93.1789 506.832 93.1789C514.967 93.1789 519.8 89.1705 522.276 84.4547C522.394 85.1621 522.512 85.8695 522.748 86.5768C524.28 92.4716 530.293 94.24 537.367 92.7074C545.855 90.8211 548.92 86.5768 548.92 82.2147C548.92 82.0968 548.92 82.2147 548.92 81.9789C548.92 77.9705 543.026 76.5558 543.026 70.8968ZM513.906 81.9789C511.076 81.9789 508.482 80.4463 508.482 75.0232C508.482 68.6568 511.194 64.7663 516.617 64.7663C517.442 64.7663 518.268 64.7663 518.975 64.7663V71.4863C518.975 79.1495 517.089 81.9789 513.906 81.9789Z" fill="#ffffff"/>
</svg>
